HIERARCHY
ROOT Hips
{
	OFFSET 0.00000 0.00000 0.00000
	CHANNELS 6 Xposition Yposition Zposition Zrotation Yrotation Xrotation 
	JOINT LHipJoint
	{
		OFFSET 0 0 0
		CHANNELS 3 Zrotation Yrotation Xrotation
		JOINT LeftUpLeg
		{
			OFFSET 1.57338 -1.94743 0.52196
			CHANNELS 3 Zrotation Yrotation Xrotation
			JOINT LeftLeg
			{
				OFFSET 2.60333 -7.15259 0.00000
				CHANNELS 3 Zrotation Yrotation Xrotation
				JOINT LeftFoot
				{
					OFFSET 2.77855 -7.63400 0.00000
					CHANNELS 3 Zrotation Yrotation Xrotation
					JOINT LeftToeBase
					{
						OFFSET 0.19847 -0.54529 2.28466
						CHANNELS 3 Zrotation Yrotation Xrotation
						End Site
						{
							OFFSET 0.00000 -0.00000 1.17993
						}
					}
				}
			}
		}
	}
	JOINT RHipJoint
	{
		OFFSET 0 0 0
		CHANNELS 3 Zrotation Yrotation Xrotation
		JOINT RightUpLeg
		{
			OFFSET -1.61527 -1.94743 0.52196
			CHANNELS 3 Zrotation Yrotation Xrotation
			JOINT RightLeg
			{
				OFFSET -2.53829 -6.97390 0.00000
				CHANNELS 3 Zrotation Yrotation Xrotation
				JOINT RightFoot
				{
					OFFSET -2.80762 -7.71387 0.00000
					CHANNELS 3 Zrotation Yrotation Xrotation
					JOINT RightToeBase
					{
						OFFSET -0.30536 -0.83898 2.28801
						CHANNELS 3 Zrotation Yrotation Xrotation
						End Site
						{
							OFFSET -0.00000 -0.00000 1.21323
						}
					}
				}
			}
		}
	}
	JOINT LowerBack
	{
		OFFSET 0 0 0
		CHANNELS 3 Zrotation Yrotation Xrotation
		JOINT Spine
		{
			OFFSET -0.04381 1.99497 -0.19778
			CHANNELS 3 Zrotation Yrotation Xrotation
			JOINT Spine1
			{
				OFFSET -0.01959 2.01295 -0.04372
				CHANNELS 3 Zrotation Yrotation Xrotation
				JOINT Neck
				{
					OFFSET 0 0 0
					CHANNELS 3 Zrotation Yrotation Xrotation
					JOINT Neck1
					{
						OFFSET -0.05459 1.76913 0.09708
						CHANNELS 3 Zrotation Yrotation Xrotation
						JOINT Head
						{
							OFFSET 0.09461 1.77368 -0.11172
							CHANNELS 3 Zrotation Yrotation Xrotation
							End Site
							{
								OFFSET 0.03812 1.78157 -0.04834
							}
						}
					}
				}
				JOINT LeftShoulder
				{
					OFFSET 0 0 0
					CHANNELS 3 Zrotation Yrotation Xrotation
					JOINT LeftArm
					{
						OFFSET 3.50922 1.24034 -0.28866
						CHANNELS 3 Zrotation Yrotation Xrotation
						JOINT LeftForeArm
						{
							OFFSET 5.40188 -0.00000 0.00000
							CHANNELS 3 Zrotation Yrotation Xrotation
							JOINT LeftHand
							{
								OFFSET 3.68559 -0.00000 0.00000
								CHANNELS 3 Zrotation Yrotation Xrotation
								JOINT LeftFingerBase
								{
									OFFSET 0 0 0
									CHANNELS 3 Zrotation Yrotation Xrotation
									JOINT LeftHandIndex1
									{
										OFFSET 0.61753 -0.00000 0.00000
										CHANNELS 3 Zrotation Yrotation Xrotation
										End Site
										{
											OFFSET 0.49787 -0.00000 0.00000
										}
									}
								}
								JOINT LThumb
								{
									OFFSET 0 0 0
									CHANNELS 3 Zrotation Yrotation Xrotation
									End Site
									{
										OFFSET 0.50547 -0.00000 0.50547
									}
								}
							}
						}
					}
				}
				JOINT RightShoulder
				{
					OFFSET 0 0 0
					CHANNELS 3 Zrotation Yrotation Xrotation
					JOINT RightArm
					{
						OFFSET -2.95373 1.39649 -0.27346
						CHANNELS 3 Zrotation Yrotation Xrotation
						JOINT RightForeArm
						{
							OFFSET -6.10670 -0.00000 -0.00000
							CHANNELS 3 Zrotation Yrotation Xrotation
							JOINT RightHand
							{
								OFFSET -3.63052 -0.00000 0.00000
								CHANNELS 3 Zrotation Yrotation Xrotation
								JOINT RightFingerBase
								{
									OFFSET 0 0 0
									CHANNELS 3 Zrotation Yrotation Xrotation
									JOINT RightHandIndex1
									{
										OFFSET -0.58385 -0.00000 0.00000
										CHANNELS 3 Zrotation Yrotation Xrotation
										End Site
										{
											OFFSET -0.47071 -0.00000 0.00000
										}
									}
								}
								JOINT RThumb
								{
									OFFSET 0 0 0
									CHANNELS 3 Zrotation Yrotation Xrotation
									End Site
									{
										OFFSET -0.47790 -0.00000 0.47790
									}
								}
							}
						}
					}
				}
			}
		}
	}
}
MOTION
Frames: 7
Frame Time: 0.033333
3.62 17.53 1.89 187.40 -127.27 -179.12 0.00 0.00 0.00 -1.55 1.39 -24.71 9.36 17.03 57.32 0.27 -4.08 12.22 1.01 -6.39 -17.91 0.00 0.00 0.00 1.92 15.67 -10.16 -7.15 -15.46 49.43 -1.65 -1.13 -24.69 -3.12 10.89 -31.90 -0.55 0.56 12.10 1.60 0.66 3.42 1.87 0.30 -3.23 -0.52 9.39 -1.39 -6.81 12.65 1.04 -1.84 6.26 0.99 0.00 0.00 0.00 -72.91 -27.28 25.59 156.16 -35.00 -112.38 -0.00 0.00 -8.68 26.93 10.53 5.31 -7.12 0.00 -0.00 -0.11 41.76 0.01 0.00 0.00 0.00 77.50 26.04 46.19 -153.01 38.17 -110.51 0.00 -0.00 -16.03 -26.93 11.26 -5.66 7.12 -0.00 -0.00 0.14 -17.39 0.09
3.77 17.81 2.15 188.82 -125.58 -179.93 0.00 0.00 0.00 -2.05 1.61 -31.23 11.19 18.03 63.41 1.10 -2.75 20.98 0.37 -3.92 -10.84 0.00 0.00 0.00 -2.90 17.03 -14.04 -7.65 -15.86 51.29 -0.38 3.42 -10.99 -2.56 9.94 -28.79 1.00 0.85 14.51 1.80 1.24 4.04 1.11 0.56 -3.88 -0.18 9.39 -2.96 -8.56 12.68 0.17 -2.38 6.25 1.14 0.00 -0.00 0.00 -73.42 -29.03 25.90 157.16 -33.92 -112.95 -0.00 0.00 -6.58 27.24 10.76 5.49 -7.12 0.00 -0.00 0.14 42.05 -0.01 0.00 -0.00 0.00 74.56 22.60 44.91 -152.20 38.93 -110.00 0.00 -0.00 -15.05 -25.69 9.72 -4.64 7.12 -0.00 -0.00 0.92 -19.22 0.56
3.93 17.98 2.43 193.91 -120.37 -184.64 0.00 0.00 0.00 -4.82 4.65 -35.21 12.43 18.56 67.33 0.50 1.85 12.80 0.51 -4.57 -12.69 0.00 0.00 0.00 -9.61 22.96 -19.11 -8.41 -16.41 54.03 0.05 4.45 -0.30 -1.90 8.65 -24.70 0.04 2.09 17.78 1.02 2.62 5.14 0.51 1.21 -4.49 0.55 9.95 -4.39 -10.40 13.42 -0.70 -3.01 6.60 1.35 0.00 -0.00 0.00 -71.66 -30.63 22.95 158.03 -32.94 -113.43 -0.00 0.00 -7.60 27.26 10.45 5.34 -7.12 0.00 -0.00 0.19 41.70 -0.02 0.00 -0.00 0.00 73.13 20.19 45.74 -147.62 42.85 -107.00 0.00 -0.00 -13.81 -26.29 9.12 -4.48 7.12 -0.00 -0.00 0.46 -19.83 0.27
3.95 17.96 2.70 202.46 -117.34 -192.45 0.00 0.00 0.00 -8.35 6.55 -37.84 12.32 18.52 67.01 -0.01 5.82 3.73 0.18 -2.74 -7.57 0.00 0.00 0.00 -15.27 28.05 -20.57 -7.96 -16.09 52.41 -0.09 0.95 -5.53 -1.38 7.43 -21.01 -3.32 2.58 19.14 -0.26 2.49 6.02 1.05 1.12 -4.34 0.84 11.06 -4.04 -11.76 14.79 -2.20 -3.51 7.33 1.03 0.00 -0.00 0.00 -67.05 -31.28 16.63 158.76 -32.11 -113.82 -0.00 0.00 -11.28 27.13 11.59 5.88 -7.12 0.00 -0.00 -0.03 42.96 0.00 0.00 -0.00 0.00 73.16 18.24 48.57 -139.11 48.59 -100.90 0.00 -0.00 -12.11 -26.73 9.54 -4.77 7.12 -0.00 -0.00 0.17 -19.32 0.10
3.79 17.72 2.94 201.41 -118.13 -190.63 0.00 0.00 0.00 -6.82 4.49 -40.77 11.22 18.04 63.51 -0.05 3.99 -0.05 0.34 -3.76 -10.41 0.00 0.00 0.00 -13.63 29.57 -17.30 -7.06 -15.38 49.10 -0.63 -1.43 -15.63 -2.11 9.09 -26.08 -4.20 1.80 17.92 -0.20 1.40 5.97 1.89 0.58 -3.72 0.63 11.93 -5.20 -11.52 16.20 -0.19 -3.18 7.92 1.94 0.00 -0.00 0.00 -63.93 -31.54 12.63 157.90 -33.09 -113.36 -0.00 0.00 -11.39 27.88 11.31 5.92 -7.12 0.00 -0.00 0.68 42.72 -0.04 0.00 -0.00 0.00 73.54 14.90 50.64 -127.62 53.91 -91.91 0.00 -0.00 -10.27 -26.38 9.66 -4.76 7.12 -0.00 -0.00 0.43 -19.22 0.26
3.55 17.32 3.18 192.08 -120.76 -181.78 0.00 0.00 0.00 -1.16 2.24 -43.71 9.65 17.21 58.31 -0.06 -4.26 2.46 0.60 -4.95 -13.78 0.00 0.00 0.00 -6.29 27.76 -12.04 -7.06 -15.38 49.09 -1.54 -5.35 -25.87 -2.74 10.27 -29.85 -1.86 0.89 16.26 0.70 0.73 5.41 1.65 0.28 -3.38 0.13 11.88 -5.91 -10.87 16.21 0.49 -2.83 7.88 2.18 0.00 -0.00 0.00 -62.71 -32.40 12.03 156.26 -34.89 -112.44 -0.00 0.00 -11.36 26.95 11.61 5.84 -7.12 0.00 -0.00 -0.20 42.96 0.01 0.00 -0.00 0.00 72.72 7.22 49.55 -124.42 55.01 -89.31 0.00 -0.00 -8.37 -24.95 10.54 -4.86 7.12 -0.00 -0.00 1.48 -18.39 0.94
3.32 16.89 3.49 186.30 -124.93 -178.56 0.00 0.00 0.00 0.76 0.51 -44.59 8.17 16.24 53.16 -0.34 -10.95 8.07 0.95 -6.21 -17.40 0.00 0.00 0.00 -1.30 25.98 -6.28 -7.36 -15.63 50.22 -1.82 -5.32 -27.88 -3.81 11.91 -35.40 -0.87 0.23 16.97 1.37 0.07 5.06 1.93 -0.03 -4.10 -1.57 12.06 -7.33 -9.79 16.64 1.40 -2.08 8.02 2.48 0.00 0.00 0.00 -63.77 -32.97 13.07 155.66 -35.53 -112.09 -0.00 0.00 -12.08 26.63 12.36 6.12 -7.12 0.00 -0.00 -0.57 43.75 0.02 0.00 0.00 0.00 70.33 -2.38 47.89 -130.01 52.99 -93.84 0.00 -0.00 -8.63 -23.09 11.17 -4.72 7.12 -0.00 -0.00 2.83 -17.87 1.83
